<svg width="22" height="22" viewBox="0 0 22 22" fill="none" xmlns="http://www.w3.org/2000/svg">
<path d="M15.9113 7.73133C15.0161 7.73095 14.1347 7.95239 13.3459 8.37586C13.2739 8.18629 13.146 8.0231 12.9791 7.90797C12.8121 7.79285 12.6141 7.73124 12.4113 7.73133H8.41135C8.28 7.73126 8.14993 7.75707 8.02857 7.8073C7.90722 7.85753 7.79695 7.93118 7.70407 8.02406C7.6112 8.11693 7.53754 8.2272 7.48732 8.34856C7.43709 8.46992 7.41127 8.59999 7.41135 8.73133V20.7313C7.41127 20.8627 7.43709 20.9927 7.48731 21.1141C7.53754 21.2355 7.6112 21.3457 7.70407 21.4386C7.79694 21.5315 7.90721 21.6051 8.02857 21.6554C8.14993 21.7056 8.28 21.7314 8.41135 21.7313H12.4113C12.5427 21.7314 12.6728 21.7056 12.7941 21.6554C12.9155 21.6051 13.0258 21.5315 13.1186 21.4386C13.2115 21.3457 13.2852 21.2355 13.3354 21.1141C13.3856 20.9927 13.4114 20.8627 13.4113 20.7313V15.2313C13.4113 14.9661 13.5167 14.7118 13.7042 14.5242C13.8918 14.3367 14.1461 14.2313 14.4113 14.2313C14.6766 14.2313 14.9309 14.3367 15.1185 14.5242C15.306 14.7118 15.4113 14.9661 15.4113 15.2313V20.7313C15.4113 20.8627 15.4371 20.9927 15.4873 21.1141C15.5375 21.2355 15.6112 21.3457 15.7041 21.4386C15.7969 21.5315 15.9072 21.6051 16.0286 21.6554C16.1499 21.7056 16.28 21.7314 16.4113 21.7313H20.4113C20.5427 21.7314 20.6728 21.7056 20.7941 21.6554C20.9155 21.6051 21.0258 21.5315 21.1186 21.4386C21.2115 21.3457 21.2852 21.2355 21.3354 21.1141C21.3856 20.9927 21.4114 20.8627 21.4113 20.7313V13.2313C21.4095 11.7732 20.8295 10.3753 19.7984 9.34425C18.7674 8.31319 17.3695 7.73314 15.9113 7.73133ZM19.4113 19.7313H17.4113V15.2313C17.4113 14.4357 17.0953 13.6726 16.5327 13.11C15.9701 12.5474 15.207 12.2313 14.4113 12.2313C13.6157 12.2313 12.8526 12.5474 12.29 13.11C11.7274 13.6726 11.4113 14.4357 11.4113 15.2313V19.7313H9.41135V9.73133H11.4113V10.4345C11.4115 10.6417 11.4759 10.8437 11.5958 11.0127C11.7157 11.1817 11.8851 11.3093 12.0806 11.3779C12.2761 11.4465 12.4881 11.4527 12.6873 11.3957C12.8865 11.3386 13.063 11.2212 13.1926 11.0595C13.6414 10.4895 14.2569 10.0739 14.9533 9.8707C15.6497 9.66751 16.3922 9.68685 17.0771 9.92604C17.7619 10.1652 18.355 10.6123 18.7735 11.2049C19.192 11.7974 19.415 12.5059 19.4113 13.2313V19.7313ZM5.41135 7.73133H1.41135C1.28 7.73126 1.14994 7.75707 1.02858 7.8073C0.907216 7.85753 0.796947 7.93118 0.704074 8.02406C0.6112 8.11693 0.537544 8.2272 0.487316 8.34856C0.437087 8.46992 0.411273 8.59999 0.411348 8.73133V20.7313C0.411272 20.8627 0.437085 20.9927 0.487313 21.1141C0.537541 21.2355 0.611197 21.3457 0.704071 21.4386C0.796945 21.5315 0.907214 21.6051 1.02857 21.6554C1.14993 21.7056 1.28 21.7314 1.41135 21.7313H5.41135C5.54269 21.7314 5.67276 21.7056 5.79412 21.6554C5.91548 21.6051 6.02575 21.5315 6.11862 21.4386C6.2115 21.3457 6.28515 21.2355 6.33538 21.1141C6.38561 20.9927 6.41142 20.8627 6.41135 20.7313V8.73133C6.41142 8.59999 6.38561 8.46992 6.33538 8.34856C6.28515 8.2272 6.2115 8.11693 6.11862 8.02406C6.02575 7.93118 5.91548 7.85753 5.79412 7.8073C5.67276 7.75707 5.54269 7.73126 5.41135 7.73133ZM4.41135 19.7313H2.41135V9.73133H4.41135V19.7313ZM3.426 0.274331C2.98836 0.248135 2.54996 0.311228 2.13747 0.459776C1.72498 0.608323 1.34702 0.83922 1.02657 1.13842C0.706111 1.43763 0.449863 1.79889 0.273406 2.20023C0.0969495 2.60158 0.00397074 3.03462 0.000124424 3.47302C-0.00372189 3.91143 0.0816447 4.34604 0.251033 4.75041C0.42042 5.15479 0.67029 5.52049 0.985445 5.82527C1.3006 6.13005 1.67446 6.36755 2.08428 6.52331C2.4941 6.67907 2.93132 6.74985 3.36935 6.73133H3.39767C3.83646 6.75739 4.27597 6.69371 4.68932 6.54418C5.10268 6.39465 5.4812 6.16241 5.80177 5.86164C6.12233 5.56087 6.37821 5.19791 6.55376 4.79491C6.7293 4.39191 6.82084 3.95736 6.82276 3.51779C6.82469 3.07822 6.73697 2.64288 6.56497 2.23836C6.39296 1.83384 6.14028 1.46864 5.82237 1.16508C5.50445 0.861511 5.12798 0.625956 4.71595 0.472803C4.30393 0.319651 3.865 0.252118 3.42599 0.274331H3.426ZM3.39768 4.73133H3.36935C3.19641 4.75233 3.02099 4.73611 2.85484 4.68376C2.68869 4.63141 2.53565 4.54414 2.40599 4.4278C2.27633 4.31145 2.17305 4.16873 2.10306 4.00921C2.03308 3.84968 1.99801 3.67703 2.00022 3.50284C2.00022 2.75674 2.55979 2.27432 3.426 2.27432C3.6007 2.25103 3.77836 2.26545 3.94701 2.31661C4.11567 2.36776 4.27141 2.45446 4.40373 2.57087C4.53606 2.68728 4.6419 2.8307 4.71414 2.99146C4.78637 3.15222 4.82331 3.3266 4.82248 3.50284C4.82248 4.24893 4.26291 4.73133 3.39768 4.73133Z" fill="#232E35"/>
</svg>
